<svg width="200" height="31" viewBox="0 0 200 31" fill="none" xmlns="http://www.w3.org/2000/svg">
<g id="Menu">
<g id="Logo">
<g id="Group">
<g id="Group 1">
<g id="Group_2">
<g id="Group_3">
<g id="Group_4">
<path id="Vector" d="M11.9775 17.586C11.9775 18.3214 11.7898 18.9713 11.4149 19.5364C11.0413 20.1002 10.4497 20.5413 9.6405 20.8598C8.83072 21.1782 7.75762 21.3381 6.42121 21.3381C4.863 21.3381 3.61457 21.1336 2.67654 20.7235C1.73789 20.3121 1.05698 19.7198 0.634439 18.9465C0.211273 18.1733 0 17.2415 0 16.1511H2.94419C2.94419 17.1442 3.2168 17.8282 3.76202 18.2031C4.30724 18.5767 5.22421 18.7632 6.51291 18.7632C7.45589 18.7632 8.11202 18.6591 8.48066 18.4509C8.84869 18.2415 9.03332 17.9651 9.03332 17.6231C9.03332 17.3047 8.87347 17.0377 8.55501 16.8227C8.23593 16.6083 7.81524 16.4057 7.29357 16.2155C6.77313 16.0259 6.19383 15.8258 5.5563 15.6157C4.86857 15.3828 4.22422 15.1535 3.62324 14.9268C3.02164 14.7006 2.49377 14.4336 2.03962 14.1263C1.58672 13.819 1.2317 13.4516 0.973963 13.0235C0.716222 12.5941 0.587352 12.0607 0.587352 11.4225C0.587352 10.319 1.01919 9.47334 1.88349 8.88474C2.74903 8.29491 4.01605 8 5.68517 8C7.0098 8 8.09777 8.2057 8.94906 8.61709C9.80158 9.02725 10.4298 9.57866 10.835 10.2726C11.2396 10.9653 11.4422 11.741 11.4422 12.5997H8.50049C8.50049 12.073 8.37719 11.6623 8.13122 11.368C7.8865 11.0724 7.55193 10.8667 7.12752 10.7509C6.70436 10.6338 6.22357 10.5749 5.68517 10.5749C5.02223 10.5749 4.49807 10.6518 4.11146 10.8054C3.72485 10.9591 3.53154 11.2013 3.53154 11.5315C3.53154 11.7286 3.58669 11.8946 3.69759 12.0297C3.80787 12.1635 4.03525 12.3072 4.37911 12.4609C4.72236 12.6146 5.23722 12.8079 5.92308 13.0408C6.40201 13.2013 6.91439 13.3766 7.45961 13.5662C8.00607 13.7564 8.54572 13.9714 9.07793 14.2106C9.61137 14.4485 10.0965 14.7273 10.5327 15.0457C10.9689 15.3648 11.3183 15.7335 11.581 16.1511C11.8449 16.5674 11.9775 17.0457 11.9775 17.586Z" fill="white"/>
</g>
</g>
</g>
<g id="Group_5">
<g id="Group_6">
<g id="Group_7">
<path id="Vector_2" d="M23.2573 21.1553H14.001V8.18396H23.2573V10.7589H16.9452V13.3735H22.3379V15.9484H16.9452V18.5803H23.2573V21.1553Z" fill="white"/>
</g>
</g>
</g>
<g id="Group_8">
<g id="Group_9">
<g id="Group_10">
<path id="Vector_3" d="M28.4022 21.1553H25.458V8.18396H30.4815C31.2547 8.18396 31.987 8.23972 32.6797 8.35C33.3736 8.46091 33.9895 8.64864 34.5285 8.91257C35.0688 9.17527 35.4913 9.54329 35.7974 10.0154C36.1047 10.4881 36.2583 11.086 36.2583 11.8097C36.2583 12.5203 36.0923 13.0755 35.7602 13.4751C35.4294 13.8735 35.013 14.164 34.5112 14.3474C34.0087 14.5308 33.4932 14.6541 32.9647 14.7167V15.4527H34.8606C35.9027 15.4527 36.4244 15.9744 36.4244 17.0165V21.1553H33.4802V16.5928H28.4022V21.1553ZM28.4022 10.7589V14.0153H30.4815C31.0713 14.0153 31.5775 13.9949 32.0007 13.9534C32.4232 13.9106 32.7479 13.7762 32.9746 13.5494C33.2008 13.3214 33.3141 12.9373 33.3141 12.397C33.3141 11.8456 33.2008 11.4565 32.9746 11.2298C32.7479 11.0018 32.4232 10.8667 32.0007 10.8233C31.5775 10.7806 31.0713 10.7589 30.4815 10.7589H28.4022Z" fill="white"/>
</g>
</g>
</g>
<g id="Group_11">
<g id="Group_12">
<g id="Group_13">
<path id="Vector_4" d="M47.647 8.18396V10.7589H44.7028V18.5803H47.647V21.1553H38.8145V18.5803H41.7586V10.7589H38.8145V8.18396H47.647Z" fill="white"/>
</g>
</g>
</g>
<g id="Group_14">
<g id="Group_15">
<g id="Group_16">
<path id="Vector_5" d="M52.9835 21.1546H50.0393V8.18332H59.2957V10.7582H52.9835V14.4955L58.8719 14.1262V16.7383L52.9835 17.1076V21.1546Z" fill="white"/>
</g>
</g>
</g>
<g id="Group_17">
<g id="Group_18">
<g id="Group_19">
<path id="Vector_6" d="M72.9287 17.586C72.9287 18.3214 72.741 18.9713 72.3661 19.5364C71.9925 20.1002 71.4008 20.5413 70.5917 20.8598C69.7819 21.1782 68.7088 21.3381 67.3724 21.3381C65.8142 21.3381 64.5657 21.1336 63.6277 20.7235C62.6891 20.3121 62.0082 19.7198 61.5856 18.9465C61.1624 18.1733 60.9512 17.2415 60.9512 16.1511H63.8954C63.8954 17.1442 64.168 17.8282 64.7132 18.2031C65.2584 18.5767 66.1754 18.7632 67.4641 18.7632C68.4071 18.7632 69.0632 18.6591 69.4318 18.4509C69.7999 18.2415 69.9845 17.9651 69.9845 17.6231C69.9845 17.3047 69.8246 17.0377 69.5062 16.8227C69.1871 16.6083 68.7664 16.4057 68.2447 16.2155C67.7243 16.0259 67.145 15.8258 66.5075 15.6157C65.8197 15.3828 65.1754 15.1535 64.5744 14.9268C63.9728 14.7006 63.4449 14.4336 62.9908 14.1263C62.5379 13.819 62.1829 13.4516 61.9251 13.0235C61.6674 12.5941 61.5385 12.0607 61.5385 11.4225C61.5385 10.319 61.9704 9.47334 62.8347 8.88474C63.7002 8.29491 64.9672 8 66.6363 8C67.961 8 69.0489 8.2057 69.9002 8.61709C70.7528 9.02725 71.381 9.57866 71.7862 10.2726C72.1908 10.9653 72.3934 11.741 72.3934 12.5997H69.4517C69.4517 12.073 69.3284 11.6623 69.0824 11.368C68.8377 11.0724 68.5031 10.8667 68.0787 10.7509C67.6555 10.6338 67.1747 10.5749 66.6363 10.5749C65.9734 10.5749 65.4492 10.6518 65.0626 10.8054C64.676 10.9591 64.4827 11.2013 64.4827 11.5315C64.4827 11.7286 64.5379 11.8946 64.6488 12.0297C64.759 12.1635 64.9864 12.3072 65.3303 12.4609C65.6735 12.6146 66.1884 12.8079 66.8743 13.0408C67.3532 13.2013 67.8656 13.3766 68.4108 13.5662C68.9572 13.7564 69.4969 13.9714 70.0291 14.2106C70.5625 14.4485 71.0477 14.7273 71.4838 15.0457C71.92 15.3648 72.2695 15.7335 72.5322 16.1511C72.7961 16.5674 72.9287 17.0457 72.9287 17.586Z" fill="white"/>
</g>
</g>
</g>
<g id="Group_20">
<g id="Group_21">
<g id="Group_22">
<path id="Vector_7" d="M94.1406 18.3771L96.6808 21.413L94.3636 22.9941L92.1183 20.1243C90.7812 20.9341 89.1871 21.3386 87.3352 21.3386C85.9969 21.3386 84.8247 21.1522 83.8185 20.7786C82.8136 20.4037 82.0354 19.8486 81.484 19.1132C80.932 18.3765 80.6562 17.4626 80.6562 16.3722C80.6562 15.5382 80.8334 14.8604 81.1891 14.34C81.5441 13.8183 81.992 13.4348 82.5323 13.1901C83.0726 12.9441 83.6116 12.8208 84.1506 12.8208C84.7404 12.8208 85.2373 12.9317 85.6425 13.1529C86.0471 13.3729 86.3966 13.6424 86.6909 13.9608V13.2248L83.7467 9.45284V8.18396H93.7911V10.7589H87.7937L92.2645 16.1318C92.8295 15.1027 93.1121 13.8642 93.1121 12.4169H96.0563C96.0563 13.6064 95.8902 14.708 95.5581 15.7204C95.2273 16.7315 94.7552 17.6175 94.1406 18.3771ZM87.3352 18.7637C88.5607 18.7637 89.6034 18.5122 90.4628 18.0078L89.3575 16.5928C88.7937 15.8691 88.2478 15.3549 87.7193 15.0488C87.1921 14.7415 86.5917 14.5878 85.9176 14.5878C85.2795 14.5878 84.7336 14.7477 84.2795 15.0661C83.8266 15.3852 83.6004 15.8567 83.6004 16.4812C83.6004 17.2662 83.9158 17.843 84.5471 18.2111C85.1779 18.5797 86.1072 18.7637 87.3352 18.7637Z" fill="white"/>
</g>
</g>
</g>
<g id="Group_23">
<g id="Group_24">
<g id="Group_25">
<path id="Vector_8" d="M116.383 17.586C116.383 18.3214 116.196 18.9713 115.821 19.5364C115.447 20.1002 114.855 20.5413 114.046 20.8598C113.236 21.1782 112.163 21.3381 110.827 21.3381C109.269 21.3381 108.02 21.1336 107.082 20.7235C106.144 20.3121 105.463 19.7198 105.04 18.9465C104.617 18.1733 104.406 17.2415 104.406 16.1511H107.35C107.35 17.1442 107.623 17.8282 108.168 18.2031C108.713 18.5767 109.63 18.7632 110.919 18.7632C111.862 18.7632 112.518 18.6591 112.886 18.4509C113.254 18.2415 113.439 17.9651 113.439 17.6231C113.439 17.3047 113.279 17.0377 112.961 16.8227C112.642 16.6083 112.221 16.4057 111.699 16.2155C111.179 16.0259 110.6 15.8258 109.962 15.6157C109.274 15.3828 108.63 15.1535 108.029 14.9268C107.427 14.7006 106.9 14.4336 106.445 14.1263C105.992 13.819 105.637 13.4516 105.38 13.0235C105.122 12.5941 104.993 12.0607 104.993 11.4225C104.993 10.319 105.425 9.47334 106.289 8.88474C107.155 8.29491 108.422 8 110.091 8C111.416 8 112.504 8.2057 113.355 8.61709C114.207 9.02725 114.836 9.57866 115.241 10.2726C115.645 10.9653 115.848 11.741 115.848 12.5997H112.906C112.906 12.073 112.783 11.6623 112.537 11.368C112.292 11.0724 111.958 10.8667 111.533 10.7509C111.11 10.6338 110.629 10.5749 110.091 10.5749C109.428 10.5749 108.904 10.6518 108.517 10.8054C108.131 10.9591 107.937 11.2013 107.937 11.5315C107.937 11.7286 107.992 11.8946 108.103 12.0297C108.214 12.1635 108.441 12.3072 108.785 12.4609C109.128 12.6146 109.643 12.8079 110.329 13.0408C110.808 13.2013 111.32 13.3766 111.865 13.5662C112.412 13.7564 112.951 13.9714 113.484 14.2106C114.017 14.4485 114.502 14.7273 114.938 15.0457C115.375 15.3648 115.724 15.7335 115.987 16.1511C116.251 16.5674 116.383 17.0457 116.383 17.586Z" fill="white"/>
</g>
</g>
</g>
<g id="Group_26">
<g id="Group_27">
<g id="Group_28">
<path id="Vector_9" d="M124.314 13.594L127.092 8.18396H130.237L125.417 16.9794V21.1553H122.473V16.9794L117.67 8.18396H120.817L123.578 13.594V15.2495H124.314V13.594Z" fill="white"/>
</g>
</g>
</g>
<g id="Group_29">
<g id="Group_30">
<g id="Group_31">
<path id="Vector_10" d="M143.502 17.586C143.502 18.3214 143.314 18.9713 142.939 19.5364C142.566 20.1002 141.974 20.5413 141.165 20.8598C140.355 21.1782 139.282 21.3381 137.946 21.3381C136.387 21.3381 135.139 21.1336 134.201 20.7235C133.262 20.3121 132.581 19.7198 132.159 18.9465C131.736 18.1733 131.524 17.2415 131.524 16.1511H134.469C134.469 17.1442 134.741 17.8282 135.286 18.2031C135.832 18.5767 136.749 18.7632 138.037 18.7632C138.98 18.7632 139.636 18.6591 140.005 18.4509C140.373 18.2415 140.558 17.9651 140.558 17.6231C140.558 17.3047 140.398 17.0377 140.079 16.8227C139.76 16.6083 139.34 16.4057 138.818 16.2155C138.298 16.0259 137.718 15.8258 137.081 15.6157C136.393 15.3828 135.749 15.1535 135.148 14.9268C134.546 14.7006 134.018 14.4336 133.564 14.1263C133.111 13.819 132.756 13.4516 132.498 13.0235C132.241 12.5941 132.112 12.0607 132.112 11.4225C132.112 10.319 132.544 9.47334 133.408 8.88474C134.273 8.29491 135.54 8 137.21 8C138.534 8 139.622 8.2057 140.473 8.61709C141.326 9.02725 141.954 9.57866 142.359 10.2726C142.764 10.9653 142.967 11.741 142.967 12.5997H140.025C140.025 12.073 139.902 11.6623 139.656 11.368C139.411 11.0724 139.076 10.8667 138.652 10.7509C138.229 10.6338 137.748 10.5749 137.21 10.5749C136.547 10.5749 136.022 10.6518 135.636 10.8054C135.249 10.9591 135.056 11.2013 135.056 11.5315C135.056 11.7286 135.111 11.8946 135.222 12.0297C135.332 12.1635 135.56 12.3072 135.904 12.4609C136.247 12.6146 136.762 12.8079 137.447 13.0408C137.926 13.2013 138.439 13.3766 138.984 13.5662C139.53 13.7564 140.07 13.9714 140.602 14.2106C141.136 14.4485 141.621 14.7273 142.057 15.0457C142.493 15.3648 142.843 15.7335 143.105 16.1511C143.369 16.5674 143.502 17.0457 143.502 17.586Z" fill="white"/>
</g>
</g>
</g>
<g id="Group_32">
<g id="Group_33">
<g id="Group_34">
<path id="Vector_11" d="M144.972 8.18396H156.397V10.7589H152.166V21.1553H149.222V10.7589H144.972V8.18396Z" fill="white"/>
</g>
</g>
</g>
<g id="Group_35">
<g id="Group_36">
<g id="Group_37">
<path id="Vector_12" d="M167.672 21.1553H158.416V8.18396H167.672V10.7589H161.36V13.3735H166.753V15.9484H161.36V18.5803H167.672V21.1553Z" fill="white"/>
</g>
</g>
</g>
<g id="Group_38">
<g id="Group_39">
<g id="Group_40">
<path id="Vector_13" d="M178.309 18.5803L180.202 8.18396H185.999V21.1553H183.054V10.7589H182.593L180.608 21.1553H175.273L173.285 10.7589H172.824V21.1553H169.88V8.18396H175.677L177.572 18.5803H178.309Z" fill="white"/>
</g>
</g>
</g>
<g id="Group_41">
<g id="Group_42">
<g id="Group_43">
<path id="Vector_14" d="M199.997 17.586C199.997 18.3214 199.809 18.9713 199.434 19.5364C199.061 20.1002 198.469 20.5413 197.66 20.8598C196.85 21.1782 195.777 21.3381 194.441 21.3381C192.883 21.3381 191.634 21.1336 190.696 20.7235C189.757 20.3121 189.077 19.7198 188.654 18.9465C188.231 18.1733 188.02 17.2415 188.02 16.1511H190.964C190.964 17.1442 191.236 17.8282 191.782 18.2031C192.327 18.5767 193.244 18.7632 194.532 18.7632C195.475 18.7632 196.132 18.6591 196.5 18.4509C196.868 18.2415 197.053 17.9651 197.053 17.6231C197.053 17.3047 196.893 17.0377 196.575 16.8227C196.255 16.6083 195.835 16.4057 195.313 16.2155C194.793 16.0259 194.213 15.8258 193.576 15.6157C192.888 15.3828 192.244 15.1535 191.643 14.9268C191.041 14.7006 190.513 14.4336 190.059 14.1263C189.606 13.819 189.251 13.4516 188.993 13.0235C188.736 12.5941 188.607 12.0607 188.607 11.4225C188.607 10.319 189.039 9.47334 189.903 8.88474C190.769 8.29491 192.036 8 193.705 8C195.029 8 196.117 8.2057 196.969 8.61709C197.821 9.02725 198.449 9.57866 198.855 10.2726C199.259 10.9653 199.462 11.741 199.462 12.5997H196.52C196.52 12.073 196.397 11.6623 196.151 11.368C195.906 11.0724 195.571 10.8667 195.147 10.7509C194.724 10.6338 194.243 10.5749 193.705 10.5749C193.042 10.5749 192.518 10.6518 192.131 10.8054C191.744 10.9591 191.551 11.2013 191.551 11.5315C191.551 11.7286 191.606 11.8946 191.717 12.0297C191.827 12.1635 192.055 12.3072 192.399 12.4609C192.742 12.6146 193.257 12.8079 193.943 13.0408C194.422 13.2013 194.934 13.3766 195.479 13.5662C196.026 13.7564 196.565 13.9714 197.097 14.2106C197.631 14.4485 198.116 14.7273 198.552 15.0457C198.988 15.3648 199.338 15.7335 199.601 16.1511C199.864 16.5674 199.997 17.0457 199.997 17.586Z" fill="white"/>
</g>
</g>
</g>
</g>
</g>
</g>
</g>
</svg>