<svg width="82" height="47" viewBox="0 0 82 47" fill="none" xmlns="http://www.w3.org/2000/svg">
<mask id="mask0_587_2073" style="mask-type:luminance" maskUnits="userSpaceOnUse" x="0" y="8" width="82" height="31">
<path d="M81.188 8H0V38.3748H81.188V8Z" fill="white"/>
</mask>
<g mask="url(#mask0_587_2073)">
<path d="M10.3271 16.1144C10.3271 16.7177 10.1738 17.2508 9.86726 17.7131C9.56068 18.1749 9.07551 18.5365 8.412 18.7979C7.74824 19.059 6.86879 19.19 5.77366 19.19C4.49626 19.19 3.47286 19.0217 2.70396 18.6849C1.93481 18.3483 1.37668 17.8632 1.02957 17.2296C0.682952 16.5963 0.509766 15.8323 0.509766 14.9382H2.92308C2.92308 15.7525 3.14663 16.3128 3.59421 16.6194C4.04155 16.926 4.79301 17.0793 5.84834 17.0793C6.62265 17.0793 7.16039 16.9938 7.4618 16.8228C7.76371 16.6518 7.91479 16.4256 7.91479 16.1438C7.91479 15.8825 7.7841 15.6641 7.52273 15.4884C7.26135 15.3123 6.9167 15.1462 6.48901 14.9902C6.06182 14.8345 5.58696 14.6714 5.06421 14.5009C4.50141 14.3098 3.97375 14.1211 3.48121 13.9349C2.98843 13.7489 2.55607 13.5306 2.18415 13.2795C1.81198 13.0279 1.52039 12.7263 1.30962 12.3745C1.0986 12.0222 0.993215 11.5845 0.993215 11.0617C0.993215 10.1572 1.3472 9.46374 2.05543 8.98152C2.76414 8.4988 3.80253 8.25732 5.17033 8.25732C6.25564 8.25732 7.14761 8.42584 7.84601 8.76239C8.5449 9.09918 9.06004 9.55143 9.39167 10.1194C9.7238 10.6873 9.88986 11.3236 9.88986 12.0276H7.47753C7.47753 11.5953 7.37681 11.2587 7.17586 11.0175C6.97467 10.7758 6.70052 10.6073 6.35341 10.5115C6.00679 10.4159 5.61251 10.368 5.17033 10.368C4.62719 10.368 4.19705 10.4309 3.88015 10.5567C3.56375 10.6824 3.40555 10.8814 3.40555 11.1531C3.40555 11.3138 3.45075 11.4494 3.54115 11.5599C3.63155 11.6707 3.81751 11.7889 4.09928 11.9146C4.3808 12.0399 4.80308 12.1981 5.36588 12.3892C5.75819 12.5197 6.17801 12.6629 6.62559 12.8186C7.07293 12.9746 7.51511 13.1508 7.95213 13.3473C8.38964 13.5433 8.78662 13.7718 9.14307 14.0332C9.5 14.2945 9.78668 14.5962 10.0029 14.9382C10.219 15.2796 10.3271 15.6717 10.3271 16.1144Z" fill="#FFFAF0"/>
<path d="M19.5712 19.0397H11.9863V8.40771H19.5712V10.5194H14.3987V12.6605H18.8175V14.7721H14.3987V16.928H19.5712V19.0397Z" fill="#FFFAF0"/>
<path d="M23.7951 19.0397H21.3828V8.40771H25.5C26.1328 8.40771 26.7332 8.45341 27.3011 8.5443C27.8696 8.6347 28.3751 8.78799 28.8173 9.00417C29.2595 9.22034 29.6064 9.52201 29.8579 9.90916C30.1095 10.2958 30.2352 10.7857 30.2352 11.3792C30.2352 11.9623 30.0991 12.4173 29.8275 12.744C29.5562 13.0702 29.2143 13.309 28.8016 13.4603C28.3894 13.6112 27.9674 13.7117 27.535 13.762V14.3644H29.0885C29.9434 14.3644 30.3708 14.7918 30.3708 15.6467V19.0397H27.9575V15.2998H23.7951V19.0397ZM23.7951 10.5194V13.1882H25.5C25.982 13.1882 26.3964 13.171 26.743 13.1361C27.0901 13.1007 27.3567 12.9902 27.5429 12.804C27.7288 12.618 27.8219 12.3038 27.8219 11.8616C27.8219 11.4091 27.7288 11.0898 27.5429 10.9036C27.3567 10.7176 27.0901 10.6073 26.743 10.5724C26.3964 10.5371 25.982 10.5194 25.5 10.5194H23.7951Z" fill="#FFFAF0"/>
<path d="M39.569 8.40771V10.5194H37.1557V16.928H39.569V19.0397H32.3301V16.928H34.7434V10.5194H32.3301V8.40771H39.569Z" fill="#FFFAF0"/>
<path d="M43.9416 19.0397H41.5293V8.40771H49.1141V10.5194H43.9416V13.5802L48.7673 13.2786V15.4207L43.9416 15.7223V19.0397Z" fill="#FFFAF0"/>
<path d="M60.29 16.1144C60.29 16.7177 60.1367 17.2508 59.8301 17.7131C59.5236 18.1749 59.0384 18.5365 58.3749 18.7979C57.7111 19.059 56.8317 19.19 55.7366 19.19C54.4591 19.19 53.4357 19.0217 52.6668 18.6849C51.8977 18.3483 51.3396 17.8632 50.9925 17.2296C50.6458 16.5963 50.4727 15.8323 50.4727 14.9382H52.886C52.886 15.7525 53.1095 16.3128 53.5571 16.6194C54.0044 16.926 54.7559 17.0793 55.8112 17.0793C56.5855 17.0793 57.1233 16.9938 57.4247 16.8228C57.7266 16.6518 57.8777 16.4256 57.8777 16.1438C57.8777 15.8825 57.747 15.6641 57.4856 15.4884C57.2242 15.3123 56.8796 15.1462 56.4519 14.9902C56.0247 14.8345 55.5499 14.6714 55.0271 14.5009C54.4643 14.3098 53.9366 14.1211 53.4441 13.9349C52.9513 13.7489 52.519 13.5306 52.147 13.2795C51.7749 13.0279 51.4833 12.7263 51.2725 12.3745C51.0615 12.0222 50.9561 11.5845 50.9561 11.0617C50.9561 10.1572 51.3101 9.46374 52.0183 8.98152C52.727 8.4988 53.7654 8.25732 55.1332 8.25732C56.2185 8.25732 57.1105 8.42584 57.8089 8.76239C58.5078 9.09918 59.0229 9.55143 59.3546 10.1194C59.6867 10.6873 59.8527 11.3236 59.8527 12.0276H57.4404C57.4404 11.5953 57.3397 11.2587 57.1388 11.0175C56.9376 10.7758 56.6634 10.6073 56.3163 10.5115C55.9697 10.4159 55.5754 10.368 55.1332 10.368C54.5901 10.368 54.1599 10.4309 53.843 10.5567C53.5266 10.6824 53.3684 10.8814 53.3684 11.1531C53.3684 11.3138 53.4136 11.4494 53.504 11.5599C53.5944 11.6707 53.7804 11.7889 54.0622 11.9146C54.3437 12.0399 54.766 12.1981 55.3288 12.3892C55.7211 12.5197 56.1409 12.6629 56.5885 12.8186C57.0358 12.9746 57.478 13.1508 57.915 13.3473C58.3525 13.5433 58.7495 13.7718 59.106 14.0332C59.4629 14.2945 59.7496 14.5962 59.9658 14.9382C60.1819 15.2796 60.29 15.6717 60.29 16.1144Z" fill="#FFFAF0"/>
<path d="M77.6775 16.7629L79.7587 19.2509L77.8583 20.548L76.0179 18.1956C74.9225 18.8586 73.6156 19.19 72.0972 19.19C71.0011 19.19 70.0411 19.0367 69.2172 18.7301C68.393 18.4236 67.7545 17.9691 67.302 17.3663C66.8493 16.7629 66.623 16.0139 66.623 15.119C66.623 14.4351 66.7687 13.8797 67.0603 13.4525C67.3517 13.0255 67.7187 12.7113 68.1608 12.5102C68.6035 12.3092 69.0462 12.2085 69.4884 12.2085C69.9711 12.2085 70.3781 12.2989 70.7098 12.4797C71.0419 12.6605 71.3283 12.8816 71.5696 13.143V12.5396L69.1572 9.44831V8.40771H77.3906V10.5194H72.4745L76.1387 14.9225C76.6011 14.0782 76.8325 13.0629 76.8325 11.8764H79.2458C79.2458 12.8519 79.1097 13.7542 78.838 14.5835C78.5668 15.4128 78.1799 16.1395 77.6775 16.7629ZM72.0972 17.0793C73.1027 17.0793 73.9573 16.8735 74.6609 16.4613L73.7559 15.2998C73.2933 14.7063 72.846 14.2843 72.4136 14.0332C71.9818 13.7817 71.4895 13.6559 70.9367 13.6559C70.4133 13.6559 69.9654 13.7866 69.5935 14.048C69.2221 14.3093 69.0364 14.6965 69.0364 15.2094C69.0364 15.8528 69.295 16.3254 69.8126 16.6273C70.3307 16.9288 71.0922 17.0793 72.0972 17.0793Z" fill="#FFFAF0"/>
<path d="M11.0732 31.9269C11.0732 32.5302 10.9199 33.0633 10.6134 33.5256C10.3068 33.9874 9.82161 34.349 9.15809 34.6104C8.49433 34.8715 7.61489 35.0025 6.51976 35.0025C5.24235 35.0025 4.21895 34.8342 3.45005 34.4974C2.6809 34.1608 2.12278 33.6757 1.77567 33.0421C1.42905 32.4088 1.25586 31.6448 1.25586 30.7507H3.66917C3.66917 31.565 3.89272 32.1253 4.3403 32.4319C4.78764 32.7385 5.5391 32.8918 6.59444 32.8918C7.36874 32.8918 7.90648 32.8063 8.2079 32.6353C8.50981 32.4643 8.66089 32.2381 8.66089 31.9563C8.66089 31.695 8.5302 31.4766 8.26882 31.3009C8.00744 31.1248 7.66279 30.9587 7.2351 30.8027C6.80791 30.647 6.33306 30.4839 5.8103 30.3134C5.24751 30.1223 4.71984 29.9336 4.2273 29.7474C3.73452 29.5614 3.30217 29.3431 2.93024 29.092C2.55808 28.8404 2.26648 28.5388 2.05571 28.187C1.84469 27.8347 1.73931 27.397 1.73931 26.8742C1.73931 25.9697 2.0933 25.2762 2.80152 24.794C3.51024 24.3113 4.54862 24.0698 5.91643 24.0698C7.00173 24.0698 7.8937 24.2383 8.5921 24.5749C9.29099 24.9117 9.80613 25.3639 10.1378 25.9319C10.4699 26.4998 10.636 27.1361 10.636 27.8401H8.22362C8.22362 27.4078 8.1229 27.0712 7.92196 26.83C7.72076 26.5883 7.44661 26.4198 7.0995 26.324C6.75288 26.2284 6.35861 26.1805 5.91643 26.1805C5.37328 26.1805 4.94314 26.2434 4.62625 26.3692C4.30984 26.4949 4.15164 26.6939 4.15164 26.9656C4.15164 27.1263 4.19684 27.2619 4.28724 27.3724C4.37764 27.4832 4.5636 27.6014 4.84537 27.7271C5.12689 27.8524 5.54917 28.0106 6.11197 28.2017C6.50428 28.3322 6.9241 28.4754 7.37169 28.6311C7.81903 28.7871 8.26121 28.9633 8.69823 29.1598C9.13574 29.3558 9.53272 29.5843 9.88916 29.8457C10.2461 30.107 10.5328 30.4087 10.749 30.7507C10.9651 31.0921 11.0732 31.4842 11.0732 31.9269Z" fill="#FFFAF0"/>
<path d="M17.5726 28.6533L19.8503 24.2197H22.4287L18.4776 31.4282V34.8517H16.0653V31.4282L12.1289 24.2197H14.7073L16.9693 28.6533V30.0113H17.5726V28.6533Z" fill="#FFFAF0"/>
<path d="M33.3017 31.9269C33.3017 32.5302 33.1484 33.0633 32.8419 33.5256C32.5353 33.9874 32.0501 34.349 31.3866 34.6104C30.7228 34.8715 29.8434 35.0025 28.7483 35.0025C27.4709 35.0025 26.4475 34.8342 25.6786 34.4974C24.9094 34.1608 24.3513 33.6757 24.0042 33.0421C23.6576 32.4088 23.4844 31.6448 23.4844 30.7507H25.8977C25.8977 31.565 26.1212 32.1253 26.5688 32.4319C27.0162 32.7385 27.7676 32.8918 28.823 32.8918C29.5973 32.8918 30.135 32.8063 30.4364 32.6353C30.7383 32.4643 30.8894 32.2381 30.8894 31.9563C30.8894 31.695 30.7587 31.4766 30.4973 31.3009C30.236 31.1248 29.8913 30.9587 29.4636 30.8027C29.0364 30.647 28.5616 30.4839 28.0388 30.3134C27.476 30.1223 26.9484 29.9336 26.4558 29.7474C25.963 29.5614 25.5307 29.3431 25.1588 29.092C24.7866 28.8404 24.495 28.5388 24.2842 28.187C24.0732 27.8347 23.9678 27.397 23.9678 26.8742C23.9678 25.9697 24.3218 25.2762 25.03 24.794C25.7388 24.3113 26.7771 24.0698 28.1449 24.0698C29.2302 24.0698 30.1222 24.2383 30.8206 24.5749C31.5195 24.9117 32.0346 25.3639 32.3663 25.9319C32.6984 26.4998 32.8645 27.1361 32.8645 27.8401H30.4521C30.4521 27.4078 30.3514 27.0712 30.1505 26.83C29.9493 26.5883 29.6751 26.4198 29.328 26.324C28.9814 26.2284 28.5871 26.1805 28.1449 26.1805C27.6018 26.1805 27.1717 26.2434 26.8548 26.3692C26.5384 26.4949 26.3802 26.6939 26.3802 26.9656C26.3802 27.1263 26.4254 27.2619 26.5158 27.3724C26.6062 27.4832 26.7921 27.6014 27.0739 27.7271C27.3554 27.8524 27.7777 28.0106 28.3405 28.2017C28.7328 28.3322 29.1526 28.4754 29.6002 28.6311C30.0475 28.7871 30.4897 28.9633 30.9267 29.1598C31.3643 29.3558 31.7612 29.5843 32.1177 29.8457C32.4746 30.107 32.7613 30.4087 32.9775 30.7507C33.1936 31.0921 33.3017 31.4842 33.3017 31.9269Z" fill="#FFFAF0"/>
<path d="M34.5098 24.2197H43.8751V26.3314H40.4065V34.8517H37.9941V26.3314H34.5098V24.2197Z" fill="#FFFAF0"/>
<path d="M53.118 34.8517H45.5332V24.2197H53.118V26.3314H47.9455V28.4725H52.3644V30.5842H47.9455V32.74H53.118V34.8517Z" fill="#FFFAF0"/>
<path d="M61.8346 32.74L63.3871 24.2197H68.1381V34.8517H65.7248V26.3314H65.3484L63.7192 34.8517H59.3456L57.7174 26.3314H57.3401V34.8517H54.9277V24.2197H59.6777L61.2312 32.74H61.8346Z" fill="#FFFAF0"/>
<path d="M79.6142 31.9269C79.6142 32.5302 79.4609 33.0633 79.1544 33.5256C78.8478 33.9874 78.3626 34.349 77.6991 34.6104C77.0353 34.8715 76.1559 35.0025 75.0608 35.0025C73.7834 35.0025 72.76 34.8342 71.9911 34.4974C71.2219 34.1608 70.6638 33.6757 70.3167 33.0421C69.9701 32.4088 69.7969 31.6448 69.7969 30.7507H72.2102C72.2102 31.565 72.4337 32.1253 72.8813 32.4319C73.3287 32.7385 74.0801 32.8918 75.1355 32.8918C75.9098 32.8918 76.4475 32.8063 76.7489 32.6353C77.0508 32.4643 77.2019 32.2381 77.2019 31.9563C77.2019 31.695 77.0712 31.4766 76.8098 31.3009C76.5485 31.1248 76.2038 30.9587 75.7761 30.8027C75.3489 30.647 74.8741 30.4839 74.3513 30.3134C73.7885 30.1223 73.2609 29.9336 72.7683 29.7474C72.2755 29.5614 71.8432 29.3431 71.4713 29.092C71.0991 28.8404 70.8075 28.5388 70.5967 28.187C70.3857 27.8347 70.2803 27.397 70.2803 26.8742C70.2803 25.9697 70.6343 25.2762 71.3425 24.794C72.0513 24.3113 73.0896 24.0698 74.4574 24.0698C75.5427 24.0698 76.4347 24.2383 77.1331 24.5749C77.832 24.9117 78.3471 25.3639 78.6788 25.9319C79.0109 26.4998 79.177 27.1361 79.177 27.8401H76.7646C76.7646 27.4078 76.6639 27.0712 76.463 26.83C76.2618 26.5883 75.9876 26.4198 75.6405 26.324C75.2939 26.2284 74.8996 26.1805 74.4574 26.1805C73.9143 26.1805 73.4842 26.2434 73.1673 26.3692C72.8509 26.4949 72.6927 26.6939 72.6927 26.9656C72.6927 27.1263 72.7379 27.2619 72.8283 27.3724C72.9187 27.4832 73.1046 27.6014 73.3864 27.7271C73.6679 27.8524 74.0902 28.0106 74.653 28.2017C75.0453 28.3322 75.4651 28.4754 75.9127 28.6311C76.36 28.7871 76.8022 28.9633 77.2392 29.1598C77.6768 29.3558 78.0737 29.5843 78.4302 29.8457C78.7871 30.107 79.0738 30.4087 79.29 30.7507C79.5061 31.0921 79.6142 31.4842 79.6142 31.9269Z" fill="#FFFAF0"/>
</g>
</svg>
